# xmcd
#
# Track frame offsets: 
#        150
#        22610
#        41810
#        63649
#        87406
#        110400
#        129926
#        148249
#        174419
#
# Disc length: 2574 seconds
#
# Revision: 0
# Processed by: cddbd v1.5.2PL0 Copyright (c) Steve Scherf et al.
# Submitted via: ExactAudioCopy v0.99pb4
#
DISCID=760a0c09
DTITLE=Cam Ly - Khi Da Yeu
DYEAR=2007
DGENRE=Vietnamese
TTITLE0=khi da yeu
TTITLE1=bac trang lua hong
TTITLE2=chuyen dem mua
TTITLE3=ngan thu ao tim
TTITLE4=noi buon hoa phuong
TTITLE5=mua nua dem
TTITLE6=hai phuong troi cach biet
TTITLE7=gui nguoi toi yeu
TTITLE8=cho nhau loi nguyen cau
EXTD=
EXTT0=
EXTT1=
EXTT2=
EXTT3=
EXTT4=
EXTT5=
EXTT6=
EXTT7=
EXTT8=
PLAYORDER=
